<svg height="512" viewBox="0 0 512 512" width="512" xmlns="http://www.w3.org/2000/svg"><g id="Filled_outline" data-name="Filled outline"><rect fill="#34507b" height="160" rx="16" width="224" x="144" y="24"/><path d="m296 248h-80l16-64h48z" fill="#eaeae8"/><path d="m144 152h224a0 0 0 0 1 0 0v16a16 16 0 0 1 -16 16h-192a16 16 0 0 1 -16-16v-16a0 0 0 0 1 0 0z" fill="#eaeae8"/><path d="m168 48h16v16h-16z" fill="#415e89"/><path d="m168 80h16v48h-16z" fill="#415e89"/><path d="m284 200h-56l4-16h48z" fill="#dfdfdd"/><path d="m200 232h112v16h-112z" fill="#eaeae8"/><path d="m48 472h-24l32-168h32z" fill="#804a32"/><path d="m464 472h24l-32-168h-32z" fill="#804a32"/><path d="m24 248h464v56h-464z" fill="#91563a"/><g fill="#804a32"><path d="m160 248h16v56h-16z"/><path d="m336 248h16v56h-16z"/><path d="m64 248 8 16h48l8-16z"/></g><path d="m304.667 428.333-83.916-37.022 6.498-14.622 83.916 37.023z" fill="#34507b"/><path d="m207 429-6.498-14.621 84.249-37.69 6.498 14.622z" fill="#34507b"/><path d="m187.941 488a11.935 11.935 0 0 1 -11.618-14.669l28.548-121.331h32l-37.48 127.432a11.935 11.935 0 0 1 -11.45 8.568z" fill="#804a32"/><path d="m324.059 488a11.935 11.935 0 0 0 11.618-14.669l-28.548-121.331h-32l37.48 127.432a11.935 11.935 0 0 0 11.45 8.568z" fill="#804a32"/><path d="m280 368h-112l4.8-38.433a32 32 0 0 1 28.856-27.9l38.544-3.5a32 32 0 0 0 28.482-25.593l6.169-30.846a32 32 0 0 1 31.383-25.728h37.766v88a64 64 0 0 1 -64 64z" fill="#34507b"/><path d="m52.077 229.53-27.666-83a8 8 0 0 1 .07-5.264l32-88 15.038 5.468-31.048 85.38 29.2 85.553z" fill="#c7483c"/><path d="m96 248h-72v-8a16 16 0 0 1 16-16h40a16 16 0 0 1 16 16z" fill="#d65246"/><path d="m32 160a16 16 0 1 1 16-16 16.019 16.019 0 0 1 -16 16z" fill="#d65246"/><path d="m120 57.941-45.255 45.255-16.97-39.598-16.971-16.971 22.627-22.627 16.971 16.971z" fill="#d65246"/><path d="m472 224v16h-85.12a32.722 32.722 0 0 0 0-16z" fill="#f9e4c8"/><path d="m472 192v16h-85.12a32.722 32.722 0 0 0 0-16z" fill="#f9e4c8"/><path d="m408 120h48v64h-48z" fill="#d65246"/><path d="m168 48h16v16h-16z"/><path d="m168 80h16v48h-16z"/><path d="m496 160v-24a16.019 16.019 0 0 0 -16-16h-16a8 8 0 0 0 -8-8h-48a8 8 0 0 0 -8 8v56h-16a8 8 0 0 0 -7.155 11.578 27.91 27.91 0 0 1 0 24.844 8.108 8.108 0 0 0 0 7.156 27.932 27.932 0 0 1 1.747 20.422h-26.592v-24a8 8 0 0 0 -8-8h-37.766a40.107 40.107 0 0 0 -39.189 32h-40.8l12-48h35.507l2.485 9.939 15.522-3.878-1.514-6.061h61.755a24.027 24.027 0 0 0 24-24v-128a24.027 24.027 0 0 0 -24-24h-192a24.027 24.027 0 0 0 -24 24v128a24.027 24.027 0 0 0 24 24h61.754l-12 48h-113.754v-8a24.028 24.028 0 0 0 -24-24h-10.234l-17.8-53.411a15.923 15.923 0 0 0 .284-20.866l16.01-44.018 7.132 16.643a8 8 0 0 0 5.84 4.7 8.006 8.006 0 0 0 7.17-2.2l45.255-45.248a8 8 0 0 0 -2.506-13.011l-38.182-16.364-15.881-15.882a8 8 0 0 0 -11.313 0l-22.628 22.627a8 8 0 0 0 0 11.314l15.881 15.881.023.052-21.844 60.043a15.992 15.992 0 0 0 -.414 31.416l16.107 48.324h-4.9a24.028 24.028 0 0 0 -24 24v72a8 8 0 0 0 8 8h53.872l-36.191 152h-8.014l25.621-134.5-15.718-3-27.429 144a8 8 0 0 0 7.859 9.5h24a8 8 0 0 0 7.782-6.147l38.537-161.853h57.681v-16h-120v-40h36.686l5.657 5.657a8 8 0 0 0 5.657 2.343h32a8 8 0 0 0 5.657-2.343l5.657-5.657h36.686v32h16v-32h87.841l-3 15a24.141 24.141 0 0 1 -21.361 19.2l-38.545 3.5a40.236 40.236 0 0 0 -36.069 34.874l-4.8 38.434a8 8 0 0 0 7.934 8.992h23.008l-22.476 95.5a19.938 19.938 0 0 0 19.408 24.5 20.037 20.037 0 0 0 19.125-14.313l17.919-60.931 31.016-13.782 31.016 13.782 17.917 60.926a20.039 20.039 0 0 0 19.127 14.318 19.939 19.939 0 0 0 19.408-24.5l-25.087-106.628a72 72 0 0 0 33.619-60.872v-48h128v40h-112v16h49.681l38.537 161.853a8 8 0 0 0 7.782 6.147h24a8 8 0 0 0 7.859-9.5l-30.191-158.5h22.332a8 8 0 0 0 8-8v-56a8 8 0 0 0 -8-8h-1.376a23.943 23.943 0 0 0 -4.755-24 23.984 23.984 0 0 0 -17.869-40h16a16.019 16.019 0 0 0 16-16zm-336-128h192a8.009 8.009 0 0 1 8 8v104h-208v-104a8.009 8.009 0 0 1 8-8zm-8 136v-8h208v8a8.009 8.009 0 0 1 -8 8h-192a8.009 8.009 0 0 1 -8-8zm-88.568-132.687 11.313 11.315a8 8 0 0 0 2.5 1.7l28.743 12.312-28.544 28.544-12.317-28.738a7.989 7.989 0 0 0 -1.7-2.506l-11.309-11.313zm414.901 428.687h-8.014l-36.191-152h15.252zm-62.333-336h32v48h-32zm-384 104a8.009 8.009 0 0 1 8-8h32a8.009 8.009 0 0 1 8 8v8h-48zm159.713 245.178a3.951 3.951 0 0 1 -3.773 2.822 3.937 3.937 0 0 1 -3.833-4.837l23.339-99.163h14.023l-10.769 36.623-.02.069zm82.141-101.178 1.439 4.893-19.293 8.573-19.293-8.573 1.439-4.893zm-42.947 24.616 1.247-4.238 4.146 1.842zm44.793-2.4 4.146-1.842 1.247 4.238zm52.192 76.94a3.937 3.937 0 0 1 -3.832 4.844 3.954 3.954 0 0 1 -3.775-2.827l-18.963-64.481c-.007-.023-.013-.046-.02-.069l-10.991-37.373a71.3 71.3 0 0 0 13.31-3.25zm-47.892-115.156h-102.938l3.68-29.441a24.142 24.142 0 0 1 21.642-20.925l38.545-3.5a40.236 40.236 0 0 0 35.6-31.99l6.169-30.846a24.065 24.065 0 0 1 23.536-19.298h29.766v80a56.063 56.063 0 0 1 -56 56zm115.022-120a44.171 44.171 0 0 0 0-16h68.978a8 8 0 0 1 0 16zm76.978-40a8.009 8.009 0 0 1 -8 8h-68.978a44.171 44.171 0 0 0 0-16h68.978a8.009 8.009 0 0 1 8 8zm-8-64h16v24h-16z"/></g></svg>